<svg xmlns="http://www.w3.org/2000/svg" viewBox="0 0 64 64">
  <defs>
    <linearGradient id="cube-top" x1="12" y1="10" x2="52" y2="30" gradientUnits="userSpaceOnUse">
      <stop stop-color="#B8E3FF" />
      <stop offset="1" stop-color="#5B8DEF" />
    </linearGradient>
    <linearGradient id="cube-left" x1="10" y1="20" x2="34" y2="56" gradientUnits="userSpaceOnUse">
      <stop stop-color="#3478F6" />
      <stop offset="1" stop-color="#123B8F" />
    </linearGradient>
    <linearGradient id="cube-right" x1="32" y1="30" x2="56" y2="50" gradientUnits="userSpaceOnUse">
      <stop stop-color="#66D9FF" />
      <stop offset="1" stop-color="#147BC1" />
    </linearGradient>
  </defs>

  <path d="M4.5 35.5c3.7 8.8 21.4 15.8 38.7 13.9 8.8-1 15-4.7 16.3-10.1" fill="none" stroke="#285A92" stroke-width="2.8" stroke-linecap="round" />
  <circle cx="59.5" cy="37.5" r="2.4" fill="#F5B942" stroke="#102A43" stroke-width="1.4" />

  <path d="M32 6.5 54 18.7 32 31 10 18.7Z" fill="url(#cube-top)" />
  <path d="M10 18.7 32 31v26.2L10 44.9Z" fill="url(#cube-left)" />
  <path d="M32 31 54 18.7v26.2L32 57.2Z" fill="url(#cube-right)" />

  <g fill="none" stroke="#102A43" stroke-width="2.25" stroke-linecap="round" stroke-linejoin="round">
    <path d="M32 6.5 54 18.7v26.2L32 57.2 10 44.9V18.7Z" />
    <path d="M10 18.7 32 31l22-12.3M32 31v26.2" />
  </g>
  <g fill="none" stroke="#F4FBFF" stroke-opacity=".76" stroke-width="1.35" stroke-linecap="round" stroke-linejoin="round">
    <path d="m24.7 10.6 22 12.2M17.3 14.6l22 12.3M39.3 10.6l-22 12.2M46.7 14.6l-22 12.3" />
    <path d="m10 27.4 22 12.3M10 36.2l22 12.2M17.3 22.8V49M24.7 26.9v26.2" />
    <path d="M32 39.7 54 27.4M32 48.4l22-12.2M46.7 22.8V49M39.3 26.9v26.2" />
  </g>
  <path d="m32 12.1 1.15 2.45 2.55.95-2.55.95L32 18.9l-1.15-2.45-2.55-.95 2.55-.95Z" fill="#FFF7D6" />
</svg>
